<mxfile host="app.diagrams.net" modified="2024-04-25T11:03:06.303Z" agent="Mozilla/5.0 (Windows NT 10.0; Win64; x64) AppleWebKit/537.36 (KHTML, like Gecko) Chrome/124.0.0.0 Safari/537.36" etag="hXMrEZ0c3HsVAaGbucmr" version="24.3.0" type="device">
  <diagram name="Página-1" id="_3WYBccJkh4KOgYCs4zB">
    <mxGraphModel dx="1434" dy="772" grid="1" gridSize="10" guides="1" tooltips="1" connect="1" arrows="1" fold="1" page="1" pageScale="1" pageWidth="827" pageHeight="1169" math="0" shadow="0">
      <root>
        <mxCell id="0" />
        <mxCell id="1" parent="0" />
        <mxCell id="w-tDZDLZBXzGuX0j_bnk-1" value="Título" style="text;html=1;align=center;verticalAlign=middle;whiteSpace=wrap;rounded=0;fontSize=30;" vertex="1" parent="1">
          <mxGeometry x="70" y="70" width="700" height="40" as="geometry" />
        </mxCell>
        <mxCell id="w-tDZDLZBXzGuX0j_bnk-2" value="Descrição" style="text;html=1;align=center;verticalAlign=middle;whiteSpace=wrap;rounded=0;" vertex="1" parent="1">
          <mxGeometry x="50" y="110" width="750" height="80" as="geometry" />
        </mxCell>
        <mxCell id="w-tDZDLZBXzGuX0j_bnk-3" value="Tópico 1" style="text;html=1;align=center;verticalAlign=middle;whiteSpace=wrap;rounded=0;fontSize=20;" vertex="1" parent="1">
          <mxGeometry x="40" y="160" width="240" height="40" as="geometry" />
        </mxCell>
        <mxCell id="w-tDZDLZBXzGuX0j_bnk-4" value="Conteúdo tópico 1" style="text;html=1;align=center;verticalAlign=middle;whiteSpace=wrap;rounded=0;" vertex="1" parent="1">
          <mxGeometry x="40" y="200" width="560" height="100" as="geometry" />
        </mxCell>
        <mxCell id="w-tDZDLZBXzGuX0j_bnk-5" value="" style="rounded=0;whiteSpace=wrap;html=1;" vertex="1" parent="1">
          <mxGeometry x="114" y="300" width="300" height="200" as="geometry" />
        </mxCell>
        <mxCell id="w-tDZDLZBXzGuX0j_bnk-6" value="Imagem ilustrativa" style="text;html=1;align=center;verticalAlign=middle;whiteSpace=wrap;rounded=0;fontSize=20;" vertex="1" parent="1">
          <mxGeometry x="234" y="385" width="60" height="30" as="geometry" />
        </mxCell>
        <mxCell id="w-tDZDLZBXzGuX0j_bnk-7" value="Tópico 2" style="text;html=1;align=center;verticalAlign=middle;whiteSpace=wrap;rounded=0;fontSize=20;" vertex="1" parent="1">
          <mxGeometry x="77" y="560" width="240" height="40" as="geometry" />
        </mxCell>
        <mxCell id="w-tDZDLZBXzGuX0j_bnk-8" value="" style="rounded=0;whiteSpace=wrap;html=1;" vertex="1" parent="1">
          <mxGeometry x="151" y="700" width="300" height="200" as="geometry" />
        </mxCell>
        <mxCell id="w-tDZDLZBXzGuX0j_bnk-9" value="Imagem ilustrativa" style="text;html=1;align=center;verticalAlign=middle;whiteSpace=wrap;rounded=0;fontSize=20;" vertex="1" parent="1">
          <mxGeometry x="271" y="785" width="60" height="30" as="geometry" />
        </mxCell>
        <mxCell id="w-tDZDLZBXzGuX0j_bnk-10" value="Conteúdo tópico 2" style="text;html=1;align=center;verticalAlign=middle;whiteSpace=wrap;rounded=0;" vertex="1" parent="1">
          <mxGeometry x="77" y="610" width="560" height="100" as="geometry" />
        </mxCell>
        <mxCell id="w-tDZDLZBXzGuX0j_bnk-11" value="Tópico 3" style="text;html=1;align=center;verticalAlign=middle;whiteSpace=wrap;rounded=0;fontSize=20;" vertex="1" parent="1">
          <mxGeometry x="114" y="980" width="240" height="40" as="geometry" />
        </mxCell>
        <mxCell id="w-tDZDLZBXzGuX0j_bnk-12" value="" style="rounded=0;whiteSpace=wrap;html=1;" vertex="1" parent="1">
          <mxGeometry x="188" y="1120" width="300" height="200" as="geometry" />
        </mxCell>
        <mxCell id="w-tDZDLZBXzGuX0j_bnk-13" value="Imagem ilustrativa" style="text;html=1;align=center;verticalAlign=middle;whiteSpace=wrap;rounded=0;fontSize=20;" vertex="1" parent="1">
          <mxGeometry x="308" y="1205" width="60" height="30" as="geometry" />
        </mxCell>
        <mxCell id="w-tDZDLZBXzGuX0j_bnk-14" value="Conteúdo tópico 3" style="text;html=1;align=center;verticalAlign=middle;whiteSpace=wrap;rounded=0;" vertex="1" parent="1">
          <mxGeometry x="114" y="1030" width="560" height="100" as="geometry" />
        </mxCell>
        <mxCell id="w-tDZDLZBXzGuX0j_bnk-15" value="Tópico 4" style="text;html=1;align=center;verticalAlign=middle;whiteSpace=wrap;rounded=0;fontSize=20;" vertex="1" parent="1">
          <mxGeometry x="114" y="1400" width="240" height="40" as="geometry" />
        </mxCell>
        <mxCell id="w-tDZDLZBXzGuX0j_bnk-16" value="" style="rounded=0;whiteSpace=wrap;html=1;" vertex="1" parent="1">
          <mxGeometry x="188" y="1540" width="300" height="200" as="geometry" />
        </mxCell>
        <mxCell id="w-tDZDLZBXzGuX0j_bnk-17" value="Imagem ilustrativa" style="text;html=1;align=center;verticalAlign=middle;whiteSpace=wrap;rounded=0;fontSize=20;" vertex="1" parent="1">
          <mxGeometry x="308" y="1625" width="60" height="30" as="geometry" />
        </mxCell>
        <mxCell id="w-tDZDLZBXzGuX0j_bnk-18" value="Conteúdo tópico 4" style="text;html=1;align=center;verticalAlign=middle;whiteSpace=wrap;rounded=0;" vertex="1" parent="1">
          <mxGeometry x="114" y="1450" width="560" height="100" as="geometry" />
        </mxCell>
      </root>
    </mxGraphModel>
  </diagram>
</mxfile>
